<?xml version="1.0" encoding="utf-8"?>
<!-- Generator: Adobe Illustrator 21.0.0, SVG Export Plug-In . SVG Version: 6.00 Build 0)  -->
<svg version="1.1" id="Layer_1" xmlns="http://www.w3.org/2000/svg" xmlns:xlink="http://www.w3.org/1999/xlink" x="0px" y="0px"
	 viewBox="0 0 400 400" style="enable-background:new 0 0 400 400;" xml:space="preserve">
<style type="text/css">
	.st0{fill:#36363A;}
	.st1{fill:#92301F;}
	.st2{font-family:'DanubeBold';}
	.st3{font-size:155.0537px;}
	.st4{fill:#FFFFFF;}
</style>
<circle class="st0" cx="200.3" cy="199.6" r="196.6"/>
<text transform="matrix(1 0 0 1 60.9453 252.7979)" class="st1 st2 st3">y</text>
<g>
	<path class="st4" d="M331.5,248l0.4-61.7c0-5.1-0.7-9.9-1.8-14.5c-2.6-10.2-7.8-19.3-15.9-27.2c-11.8-11.4-25.9-17-42.3-17
		l-29.3,0.1l-30.4,0.3l1.1,43.2l0,0.4l-0.4,59.1c0,5.3,0.7,10.2,1.9,14.9c2.5,10.1,7.7,19,15.7,26.8c11.7,11.4,25.8,17.1,42.2,17.1
		h29.3l30.2-0.2L331.5,248z M302.1,260.7h-29.4c-8.2,0-15.1-2.9-20.9-8.8c-5.7-5.9-8.6-12.9-8.6-21v-32.3c0-1.5-0.1-3-0.4-4.5
		l-0.1-37.2l29.4-0.1c8.2,0,15.1,2.9,20.9,8.8c5.8,5.8,8.7,12.8,8.7,21l0.1,32.3c0,1.3,0.1,2.5,0.3,3.7V260.7z"/>
</g>
</svg>
